<svg width="68" height="68" viewBox="0 0 68 68" fill="none" xmlns="http://www.w3.org/2000/svg">
<path fill-rule="evenodd" clip-rule="evenodd" d="M21.2723 15.2766C22.3711 14.1769 23.5765 13.2491 24.8553 12.4932C30.4791 9.16893 37.5214 9.16893 43.1452 12.4932C44.424 13.2491 45.6294 14.1769 46.7282 15.2766L34.0003 28.0154L21.2723 15.2766ZM34.0003 21.646L28.1795 15.8202C31.8505 14.0651 36.15 14.0651 39.821 15.8202L34.0003 21.646Z" fill="#474CDE"/>
<path d="M11.5 35.4807C11.5 28.4298 14.7377 22.1357 19.8064 18.0066L23.0094 21.2123C18.746 24.5068 16 29.6728 16 35.4807C16 45.4304 24.0589 53.4961 34 53.4961C43.9411 53.4961 52 45.4304 52 35.4807C52 29.6728 49.2541 24.5069 44.9907 21.2124L48.1937 18.0066C53.2623 22.1358 56.5 28.4298 56.5 35.4807C56.5 47.9178 46.4264 58 34 58C21.5736 58 11.5 47.9178 11.5 35.4807Z" fill="#474CDE"/>
</svg>
