<svg width="68" height="68" viewBox="0 0 68 68" fill="none" xmlns="http://www.w3.org/2000/svg">
<path fill-rule="evenodd" clip-rule="evenodd" d="M22.8 31.3333C28.9856 31.3333 34 26.5577 34 20.6667C34 14.7756 28.9856 10 22.8 10C16.6144 10 11.6 14.7756 11.6 20.6667C11.6 26.5577 16.6144 31.3333 22.8 31.3333ZM22.8 26C25.8928 26 28.4 23.6122 28.4 20.6667C28.4 17.7211 25.8928 15.3333 22.8 15.3333C19.7072 15.3333 17.2 17.7211 17.2 20.6667C17.2 23.6122 19.7072 26 22.8 26Z" fill="#474CDE"/>
<path d="M31.2 39.3333C32.7464 39.3333 34 40.5272 34 42V58H39.6V42C39.6 37.5817 35.8392 34 31.2 34H14.4C9.76081 34 6 37.5817 6 42V58H11.6V42C11.6 40.5272 12.8536 39.3333 14.4 39.3333H31.2Z" fill="#474CDE"/>
<path d="M62 31.3333H45.2V36.6667H62V31.3333Z" fill="#474CDE"/>
<path d="M45.2 42H62V47.3333H45.2V42Z" fill="#474CDE"/>
<path d="M62 20.6667H45.2V26H62V20.6667Z" fill="#474CDE"/>
</svg>
