<svg width="68" height="68" viewBox="0 0 68 68" fill="none" xmlns="http://www.w3.org/2000/svg">
<path d="M47.9092 42H53.2728V47.3333H47.9092V42Z" fill="#474CDE"/>
<path d="M53.2728 31.3333H47.9092V36.6667H53.2728V31.3333Z" fill="#474CDE"/>
<path fill-rule="evenodd" clip-rule="evenodd" d="M37.1818 20.6667H64V58H5V10H37.1818V20.6667ZM23.7727 15.3333H31.8182V20.6667H23.7727V15.3333ZM31.8182 52.6667V47.3333H23.7727V52.6667H31.8182ZM31.8182 42V36.6667H23.7727V42H31.8182ZM31.8182 31.3333V26H23.7727V31.3333H31.8182ZM58.6364 52.6667V26H37.1818V31.3333H42.5455V36.6667H37.1818V42H42.5455V47.3333H37.1818V52.6667H58.6364ZM10.3636 52.6667V47.3333H18.4091V52.6667H10.3636ZM10.3636 42H18.4091V36.6667H10.3636V42ZM18.4091 31.3333V26H10.3636V31.3333H18.4091ZM10.3636 20.6667H18.4091V15.3333H10.3636V20.6667Z" fill="#474CDE"/>
</svg>
