<svg width="195" height="45" viewBox="0 0 195 45" fill="none" xmlns="http://www.w3.org/2000/svg">
<path d="M55.5781 15.0713H57.0934V21.0361H64.1878V15.0713H65.6848V30.1693H64.1878V22.7764H57.0934V30.1693H55.5781V15.0713Z" fill="white"/>
<path d="M75.859 21.7935H71.1523V23.4741H75.859V21.7935Z" fill="white"/>
<path d="M81.0211 26.2751C81.7973 27.0533 82.6973 27.6973 83.6843 28.1808C84.531 28.591 85.4574 28.8105 86.3981 28.8236C86.9282 28.8322 87.456 28.7515 87.9593 28.5848C88.391 28.4428 88.7893 28.2147 89.1303 27.9144C89.4462 27.6324 89.7009 27.2886 89.8787 26.9042C90.0591 26.5144 90.1501 26.0893 90.1451 25.6598C90.1558 24.9937 89.9034 24.3502 89.4425 23.869C88.8787 23.3113 88.1272 22.9839 87.3349 22.9506C86.816 22.8955 86.3247 22.8496 85.8701 22.8129C85.4155 22.7762 84.9838 22.7257 84.566 22.6706C84.1707 22.6176 83.7795 22.5378 83.3951 22.4318C83.0386 22.333 82.6972 22.1863 82.3803 21.9956C81.8341 21.6885 81.3842 21.2356 81.0809 20.6873C80.7776 20.1391 80.6328 19.5173 80.6629 18.8915C80.6569 18.3328 80.7679 17.7791 80.9889 17.2659C81.1966 16.7617 81.5098 16.3077 81.9073 15.9343C82.3317 15.5319 82.8331 15.2195 83.3813 15.016C84.001 14.793 84.656 14.6841 85.3145 14.6945C86.3438 14.6941 87.3619 14.9084 88.3037 15.3236C89.3169 15.7802 90.2477 16.4007 91.0588 17.1603L90.1864 18.7262C88.6864 17.2139 87.0655 16.4578 85.3236 16.4578C84.5011 16.4099 83.6881 16.6538 83.0277 17.1466C82.7678 17.3332 82.5554 17.5785 82.4078 17.8625C82.2602 18.1465 82.1816 18.4612 82.1782 18.7813C82.175 19.034 82.2253 19.2845 82.3258 19.5164C82.4263 19.7483 82.5748 19.9563 82.7614 20.1267C83.0129 20.3711 83.3179 20.5535 83.6522 20.6593C84.0228 20.7801 84.4041 20.8646 84.791 20.9119C85.2042 20.967 85.6588 21.0083 86.1685 21.0359C86.6782 21.0634 87.1787 21.1185 87.7344 21.192C88.8654 21.3118 89.9105 21.8507 90.6639 22.7027C91.3591 23.5341 91.728 24.5901 91.7017 25.6736C91.7045 26.3124 91.5829 26.9456 91.3435 27.5379C91.1114 28.1155 90.7628 28.6391 90.3196 29.0762C89.8426 29.5358 89.277 29.8936 88.6573 30.1277C87.9341 30.3994 87.166 30.5318 86.3935 30.518C85.2519 30.5293 84.1198 30.3107 83.0645 29.8751C81.9661 29.3928 80.9678 28.7091 80.1211 27.8593L81.0211 26.2751Z" fill="white"/>
<path d="M99.8421 16.8114H94.7773V15.0757H106.404V16.8114H101.339V30.1691H99.8421V16.8114Z" fill="white"/>
<path d="M110.109 15.0708H116.997C117.513 15.0411 118.029 15.1248 118.509 15.316C118.989 15.5072 119.421 15.8012 119.775 16.1774C120.481 17.0486 120.835 18.1529 120.767 19.2723C120.771 19.7829 120.703 20.2914 120.565 20.783C120.441 21.2307 120.249 21.6566 119.996 22.0458C119.762 22.4079 119.47 22.729 119.132 22.9963C118.777 23.2563 118.37 23.4365 117.938 23.5244L120.951 30.1642H119.302L116.29 23.5519H111.606V30.1642H110.109V15.0708ZM116.914 21.7932C118.445 21.7932 119.21 20.9713 119.21 19.3274C119.245 18.667 119.043 18.0158 118.641 17.4907C118.433 17.26 118.175 17.0794 117.887 16.9624C117.599 16.8455 117.289 16.7954 116.979 16.8157H111.606V21.8024L116.914 21.7932Z" fill="white"/>
<path d="M129.879 15.0708H131.128L137.097 30.1688H135.472L133.828 26.1096H127.179L125.595 30.1688H123.992L129.879 15.0708ZM133.162 24.3417L130.503 17.6468L127.859 24.3417H133.162Z" fill="white"/>
<path d="M142.889 16.8114H137.824V15.0757H149.446V16.8114H144.386V30.1691H142.889V16.8114Z" fill="white"/>
<path d="M153.215 15.0713H162.679V16.807H154.712V21.2335H159.533V22.9692H154.712V28.4335H163.17V30.1693H153.215V15.0713Z" fill="white"/>
<path d="M177.741 23.8643H174.463V22.1285H179.238V26.6699C178.754 27.8209 177.973 28.8225 176.974 29.5719C176.046 30.2327 174.932 30.5801 173.792 30.5638C172.928 30.5694 172.074 30.3679 171.304 29.976C170.534 29.5816 169.861 29.0218 169.334 28.3367C168.758 27.5889 168.319 26.7446 168.039 25.8434C167.414 23.7757 167.414 21.5697 168.039 19.502C168.319 18.5923 168.758 17.739 169.334 16.9811C169.858 16.2896 170.531 15.7247 171.304 15.328C172.174 14.8892 173.145 14.689 174.118 14.7479C175.091 14.8067 176.03 15.1226 176.841 15.6632C177.794 16.3238 178.558 17.2211 179.059 18.2668L177.81 19.3918C177.476 18.5399 176.908 17.7997 176.171 17.2566C175.478 16.7601 174.645 16.4964 173.792 16.5035C173.151 16.4999 172.52 16.6578 171.956 16.9627C171.374 17.2762 170.866 17.7116 170.468 18.2393C170.029 18.8237 169.698 19.4814 169.49 20.1816C169.244 20.985 169.123 21.8212 169.132 22.6612C169.123 23.4967 169.244 24.3286 169.49 25.127C169.703 25.8269 170.033 26.4854 170.468 27.074C170.863 27.6031 171.371 28.0376 171.956 28.3459C172.522 28.6453 173.152 28.8029 173.792 28.8051C175.473 28.8051 176.789 27.899 177.741 26.0867V23.8643Z" fill="white"/>
<path d="M187.934 22.6065L182.516 15.0713H184.389L188.696 21.0407L192.976 15.0713H194.877L189.431 22.634V30.1693H187.934V22.6065Z" fill="white"/>
<path d="M39.7717 39.737H5.23558V5.26584H39.7717V39.737ZM45.0078 0H0.0078125V45H45.0078V0Z" fill="white"/>
<path d="M15.0078 10H10.0078V35H15.0078V10Z" fill="white"/>
<path d="M25.0078 25H20.0078V35H25.0078V25Z" fill="white"/>
<path d="M25.0078 10H20.0078V20H25.0078V10Z" fill="white"/>
<path d="M35.0078 10H30.0078V35H35.0078V10Z" fill="white"/>
</svg>
