<svg width="195" height="50" viewBox="0 0 195 50" fill="none" xmlns="http://www.w3.org/2000/svg">
<g clip-path="url(#clip0_226:47)">
<path fill-rule="evenodd" clip-rule="evenodd" d="M117.213 39.1014C107.545 46.2082 93.5317 49.9999 81.4666 49.9999C64.5493 49.9999 49.3194 43.7598 37.7975 33.3813C36.8922 32.5652 37.7033 31.453 38.7896 32.0885C51.2241 39.3037 66.5988 43.6443 82.4804 43.6443C93.1913 43.6443 104.974 41.4342 115.808 36.8481C117.445 36.1547 118.813 37.917 117.213 39.1014" fill="#B3B4C0"/>
<path fill-rule="evenodd" clip-rule="evenodd" d="M121.232 34.5151C120.001 32.9406 113.063 33.7712 109.949 34.1395C109 34.2551 108.855 33.4317 109.71 32.8395C115.235 28.9611 124.302 30.0806 125.36 31.3806C126.417 32.6878 125.085 41.7519 119.892 46.078C119.095 46.7425 118.335 46.3886 118.69 45.5075C119.856 42.6041 122.47 36.0968 121.232 34.5151" fill="#B3B4C0"/>
<path fill-rule="evenodd" clip-rule="evenodd" d="M110.166 5.45974V1.68968C110.166 1.11911 110.601 0.736328 111.122 0.736328H128.047C128.59 0.736328 129.024 1.12633 129.024 1.68968V4.91806C129.017 5.45974 128.561 6.16753 127.75 7.28699L118.98 19.7744C122.239 19.695 125.679 20.1789 128.633 21.84C129.3 22.2156 129.481 22.7645 129.531 23.3061V27.329C129.531 27.8779 128.923 28.5207 128.286 28.1884C123.079 25.4656 116.163 25.1695 110.405 28.2173C109.819 28.5351 109.203 27.8995 109.203 27.3506V23.53C109.203 22.9161 109.21 21.8689 109.826 20.9372L119.986 6.40586H111.144C110.601 6.40586 110.166 6.02308 110.166 5.45974" fill="#B3B4C0"/>
<path fill-rule="evenodd" clip-rule="evenodd" d="M48.4281 28.9837H43.2791C42.7867 28.9475 42.3956 28.5792 42.3594 28.1097V1.75543C42.3594 1.22819 42.8011 0.809296 43.3515 0.809296H48.153C48.6527 0.830948 49.051 1.21375 49.0872 1.69042V5.13548H49.1813C50.4342 1.80598 52.7878 0.253174 55.9598 0.253174C59.1825 0.253174 61.1957 1.80598 62.6441 5.13548C63.8898 1.80598 66.7214 0.253174 69.7558 0.253174C71.9139 0.253174 74.2747 1.14152 75.7159 3.13489C77.3453 5.35215 77.0122 8.57331 77.0122 11.3973L77.005 28.0303C77.005 28.5575 76.5632 28.9837 76.0128 28.9837H70.871C70.3568 28.9475 69.944 28.5359 69.944 28.0303V14.0623C69.944 12.9501 70.0454 10.1767 69.7992 9.12221C69.4154 7.35274 68.2639 6.85439 66.7721 6.85439C65.5264 6.85439 64.2229 7.68496 63.6942 9.01388C63.1656 10.3428 63.2163 12.5673 63.2163 14.0623V28.0303C63.2163 28.5575 62.7745 28.9837 62.2241 28.9837H57.0823C56.5609 28.9475 56.1553 28.5359 56.1553 28.0303L56.1481 14.0623C56.1481 11.1228 56.6333 6.79662 52.9761 6.79662C49.2755 6.79662 49.4203 11.0145 49.4203 14.0623V28.0303C49.4203 28.5575 48.9785 28.9837 48.4282 28.9837" fill="#B3B4C0"/>
<path fill-rule="evenodd" clip-rule="evenodd" d="M143.595 0.253174C151.236 0.253174 155.371 6.79662 155.371 15.1168C155.371 23.1552 150.801 29.5325 143.595 29.5325C136.093 29.5325 132.008 22.9891 132.008 14.8351C132.008 6.6305 136.143 0.253174 143.595 0.253174V0.253174ZM143.639 5.63382C139.844 5.63382 139.605 10.7906 139.605 14.0045C139.605 17.2257 139.554 24.1013 143.595 24.1013C147.586 24.1013 147.774 18.5546 147.774 15.1745C147.774 12.9501 147.68 10.2922 147.006 8.1833C146.427 6.34883 145.276 5.63382 143.639 5.63382" fill="#B3B4C0"/>
<path fill-rule="evenodd" clip-rule="evenodd" d="M165.278 28.9837H160.151C159.637 28.9475 159.224 28.5359 159.224 28.0303L159.217 1.66875C159.26 1.18486 159.688 0.809296 160.209 0.809296H164.981C165.43 0.830948 165.8 1.1343 165.901 1.54598V5.57604H165.995C167.436 1.97209 169.457 0.253174 173.013 0.253174C175.323 0.253174 177.575 1.08374 179.024 3.35878C180.371 5.46771 180.371 9.01388 180.371 11.5634V28.1531C180.313 28.6153 179.885 28.9837 179.378 28.9837H174.215C173.744 28.9475 173.353 28.6009 173.302 28.1531V13.8384C173.302 10.9567 173.636 6.73884 170.08 6.73884C168.827 6.73884 167.675 7.57663 167.103 8.84776C166.379 10.4583 166.285 12.0617 166.285 13.8384V28.0303C166.278 28.5575 165.829 28.9837 165.278 28.9837" fill="#B3B4C0"/>
<path fill-rule="evenodd" clip-rule="evenodd" d="M96.6749 16.3947C96.6749 18.3953 96.7256 20.0637 95.7117 21.8404C94.8933 23.2848 93.5898 24.1732 92.1486 24.1732C90.1716 24.1732 89.0129 22.6709 89.0129 20.4537C89.0129 16.0769 92.9452 15.2825 96.6749 15.2825V16.3947V16.3947ZM101.867 28.911C101.527 29.2144 101.035 29.236 100.651 29.0338C98.9416 27.6182 98.6302 26.961 97.696 25.6104C94.8716 28.4849 92.8656 29.3444 89.2084 29.3444C84.8704 29.3444 81.5029 26.6793 81.5029 21.342C81.5029 17.1747 83.7624 14.3364 86.9923 12.9497C89.7877 11.7219 93.6912 11.5052 96.6749 11.1657V10.5013C96.6749 9.28071 96.769 7.83624 96.0448 6.78178C95.422 5.83565 94.2198 5.44565 93.1553 5.44565C91.1927 5.44565 89.4474 6.44955 89.0201 8.52959C88.9332 8.99182 88.5928 9.44683 88.1221 9.46849L83.1324 8.93404C82.7123 8.84015 82.2416 8.5007 82.3647 7.85791C83.509 1.82004 88.9839 0 93.8795 0C96.3852 0 99.6586 0.664457 101.636 2.55671C104.141 4.88953 103.902 8.00236 103.902 11.3896V19.392C103.902 21.797 104.902 22.8515 105.843 24.1515C106.169 24.6137 106.242 25.1699 105.821 25.5165C104.771 26.3904 102.903 28.0155 101.875 28.9255L101.867 28.911" fill="#B3B4C0"/>
<path fill-rule="evenodd" clip-rule="evenodd" d="M29.1719 16.3947C29.1719 18.3953 29.2226 20.0637 28.2087 21.8404C27.3904 23.2848 26.0941 24.1732 24.6457 24.1732C22.6686 24.1732 21.5172 22.6709 21.5172 20.4537C21.5172 16.0769 25.4496 15.2825 29.1719 15.2825V16.3947V16.3947ZM34.3644 28.911C34.024 29.2144 33.5316 29.236 33.1478 29.0338C31.4387 27.6182 31.1345 26.961 30.193 25.6104C27.3687 28.4849 25.3699 29.3444 21.7055 29.3444C17.3748 29.3444 14 26.6793 14 21.342C14 17.1747 16.2667 14.3363 19.4894 12.9497C22.2848 11.7219 26.1882 11.5052 29.1719 11.1657V10.5013C29.1719 9.28071 29.2661 7.83624 28.5491 6.78178C27.9191 5.83565 26.7169 5.44565 25.6596 5.44565C23.697 5.44565 21.9444 6.44955 21.5172 8.52959C21.4303 8.99182 21.0899 9.44683 20.6264 9.46849L15.6294 8.93404C15.2094 8.84015 14.7459 8.50069 14.8618 7.85791C16.0133 1.82003 21.481 0 26.3765 0C28.8822 0 32.1556 0.664457 34.1327 2.55671C36.6384 4.88952 36.3994 8.00235 36.3994 11.3896V19.392C36.3994 21.797 37.3988 22.8515 38.3403 24.1515C38.6734 24.6137 38.7458 25.1699 38.3258 25.5165C37.2757 26.3904 35.4073 28.0155 34.3789 28.9255L34.3644 28.911" fill="#B3B4C0"/>
</g>
<defs>
<clipPath id="clip0_226:47">
<rect width="195" height="50" fill="white"/>
</clipPath>
</defs>
</svg>
