<svg width="195" height="50" viewBox="0 0 195 50" fill="none" xmlns="http://www.w3.org/2000/svg">
<g clip-path="url(#clip0_226:61)">
<path d="M9.87266 24.4829C9.80389 24.3945 9.71302 24.325 9.60885 24.2812C9.50468 24.2374 9.39074 24.2207 9.27808 24.2328C9.16542 24.2449 9.05784 24.2854 8.96579 24.3503C8.87373 24.4151 8.80032 24.5023 8.75265 24.6032L3.07211 35.7531C3.02022 35.8545 2.99562 35.9674 3.00064 36.0808C3.00566 36.1943 3.04014 36.3046 3.1008 36.4013C3.16145 36.498 3.24628 36.5778 3.34724 36.6333C3.44819 36.6888 3.56191 36.718 3.67761 36.7183H11.5877C11.7157 36.7207 11.8417 36.6862 11.9499 36.619C12.0582 36.5518 12.144 36.455 12.1967 36.3404C13.9012 32.9055 12.8687 27.6259 9.87266 24.4829V24.4829Z" fill="url(#paint0_linear_226:61)"/>
<path d="M14.041 14.3567C12.6249 16.4947 11.7997 18.9574 11.6463 21.5029C11.4929 24.0485 12.0166 26.5894 13.166 28.8763L16.9985 36.3405C17.0544 36.4514 17.1407 36.5448 17.2476 36.6104C17.3545 36.6759 17.478 36.7109 17.604 36.7115H25.5141C25.625 36.7025 25.7321 36.6677 25.8265 36.61C25.921 36.5523 26 36.4733 26.0572 36.3796C26.1143 36.2859 26.1479 36.1802 26.1551 36.0713C26.1623 35.9623 26.1429 35.8533 26.0986 35.7531L15.196 14.3567C15.1438 14.2499 15.0619 14.1597 14.9597 14.0966C14.8575 14.0335 14.7392 14 14.6185 14C14.4978 14 14.3795 14.0335 14.2773 14.0966C14.1751 14.1597 14.0932 14.2499 14.041 14.3567V14.3567Z" fill="#B3B4C0"/>
<path d="M181.153 26.2419L186.897 36.7185H192V18.0186H187.94V30.0856L186.403 26.5853L181.79 18.0186H175.382V36.7185H179.442V22.4565L181.153 26.2419Z" fill="#B3B4C0"/>
<path d="M149.559 18.0186H145.121V36.7185H149.559V18.0186Z" fill="#B3B4C0"/>
<path d="M140 31.1882C140 27.9147 138.232 26.3792 133.241 25.3247C130.487 24.727 129.822 24.1293 129.822 23.2637C129.822 22.1817 130.805 21.7249 132.622 21.7249C134.827 21.7249 137.004 22.3809 139.062 23.2912V19.0147C137.086 18.1315 134.933 17.6938 132.762 17.7334C127.83 17.7334 125.279 19.8391 125.279 23.2843C125.279 26.0323 126.584 28.2341 131.687 29.2028C134.732 29.8279 135.373 30.3123 135.373 31.3084C135.373 32.3045 134.732 32.9022 132.573 32.9022C129.981 32.8557 127.44 32.182 125.177 30.9409V35.4372C126.714 36.1757 128.744 37.0001 132.527 37.0001C137.861 37.0001 139.979 34.6678 139.979 31.195" fill="#B3B4C0"/>
<path d="M121.527 31.1882C121.527 27.9147 119.777 26.3792 114.772 25.3247C112.017 24.727 111.349 24.1293 111.349 23.2637C111.349 22.1817 112.336 21.7249 114.149 21.7249C116.354 21.7249 118.527 22.3809 120.585 23.2912V19.0147C118.609 18.1315 116.456 17.6938 114.285 17.7334C109.357 17.7334 106.802 19.8391 106.802 23.2843C106.802 26.0323 108.108 28.2341 113.214 29.2028C116.259 29.8279 116.896 30.3123 116.896 31.3084C116.896 32.3045 116.259 32.9022 114.096 32.9022C111.504 32.8557 108.964 32.182 106.701 30.9409V35.4372C108.241 36.1757 110.271 37.0001 114.051 37.0001C119.388 37.0001 121.502 34.6678 121.502 31.195" fill="#B3B4C0"/>
<path d="M76.821 32.6755V18.0186H72.355V36.7185H81.4761L82.9111 32.6755H76.821Z" fill="#B3B4C0"/>
<path d="M63.7311 36.7185V22.0581H69.0091V18.0186H54.3335V22.0581H59.265V36.7185H63.7311Z" fill="#B3B4C0"/>
<path d="M47.8585 18.0186H42.0065L35.3564 36.7185H40.449L41.394 33.5686C43.7133 34.2375 46.1797 34.2375 48.499 33.5686L49.4406 36.7185H54.5156L47.8585 18.0186ZM44.9325 30.1989C44.1033 30.2001 43.2782 30.0844 42.4825 29.8554L44.9325 21.694L47.3825 29.8554C46.5868 30.0842 45.7617 30.1999 44.9325 30.1989V30.1989Z" fill="#B3B4C0"/>
<path d="M97.1984 18.0186H91.3463L84.6963 36.7185H89.7713L90.7163 33.5686C93.0356 34.2375 95.5021 34.2375 97.8214 33.5686L98.7629 36.7185H103.838L97.1984 18.0186ZM94.2724 30.1989C93.4431 30.2004 92.618 30.0847 91.8223 29.8554L94.2724 21.694L96.7224 29.8554C95.9267 30.0847 95.1016 30.2004 94.2724 30.1989Z" fill="#B3B4C0"/>
<path d="M165.547 18.0186H159.695L153.045 36.7185H158.12L159.061 33.5686C161.381 34.2375 163.847 34.2375 166.167 33.5686L167.108 36.7185H172.187L165.547 18.0186ZM162.621 30.1989C161.792 30.1999 160.967 30.0842 160.171 29.8554L162.621 21.694L165.071 29.8554C164.275 30.0842 163.45 30.1999 162.621 30.1989V30.1989Z" fill="#B3B4C0"/>
</g>
<defs>
<linearGradient id="paint0_linear_226:61" x1="12.9877" y1="26.2039" x2="7.15933" y2="36.4935" gradientUnits="userSpaceOnUse">
<stop stop-color="#B3B4C0"/>
<stop offset="0.92" stop-color="#B3B4C0"/>
</linearGradient>
<clipPath id="clip0_226:61">
<rect width="189" height="23" fill="white" transform="translate(3 14)"/>
</clipPath>
</defs>
</svg>
