<svg width="195" height="50" viewBox="0 0 195 50" fill="none" xmlns="http://www.w3.org/2000/svg">
<path d="M193.321 24.4768L191.536 24.9581C189.841 19.1825 186.994 16.7082 182.979 16.7082C180.159 16.7082 178.16 18.5621 178.16 21.5213C178.16 24.3378 180.48 25.853 186.787 28.3967C192.593 30.5287 195 33.1384 195 37.7019C195 44.6451 189.539 49 180.569 49C176.256 49 171.37 48.0374 168.616 46.9375L168.272 37.2901L169.967 36.9461C172.514 43.547 175.772 46.0445 180.014 46.0445C183.685 46.0445 185.613 43.5007 185.613 40.8874C185.613 38.2741 184.121 36.7625 178.385 34.7018C172.924 32.9138 169.185 30.5769 169.185 24.7781C169.185 19.0738 174.209 14.2358 182.748 14.2358C186.787 14.2358 190.458 14.9239 192.867 16.0237L193.321 24.4768ZM156.379 27.5019C156.586 22.9652 155.665 16.4106 151.928 16.4106C148.096 16.4106 145.985 22.5302 145.917 27.7782L156.379 27.5019ZM152.845 14.2108C162.25 14.2108 166.794 21.0863 166.863 30.1152H145.691C145.619 38.1137 149.867 44.162 157.805 44.162C161.267 44.162 163.266 43.1994 165.375 41.6878L166.362 42.7876C164.042 45.95 159.223 48.9733 152.799 48.9733C142.475 48.9733 135.316 41.8928 135.316 31.8995C135.293 22.8707 141.166 14.2073 152.845 14.2073V14.2108ZM122.331 30.9369C122.124 23.8066 119.512 18.1272 114.484 18.1272C113.289 18.1272 112.373 18.334 110.951 18.8153L111.361 46.2922C111.866 46.499 113.057 46.6363 113.908 46.6363C118.794 46.6363 122.328 39.7376 122.328 30.9387L122.331 30.9369ZM132.813 30.4039C132.813 41.702 125.674 48.9893 113.563 48.9893C109.25 48.9893 104.776 48.3012 100.9 47.4081C101.244 42.8714 101.244 14.7741 100.9 9.47982C100.555 6.72927 99.7754 5.42262 97.641 5.1481L96.2186 5.01084V3.75055L111.156 1C111.085 3.31738 110.949 9.47982 110.949 16.6976C113.565 15.3909 115.973 14.6351 119.23 14.6351C127.007 14.6351 132.793 21.236 132.793 30.4022L132.813 30.4039ZM94.7802 24.2665C90.1687 21.2414 85.2146 22.548 84.2259 24.2665C83.7904 29.5608 83.8814 37.6965 84.2973 41.8892C84.5043 44.6398 85.2842 45.8074 87.4168 46.0142L90.2365 46.2887V48.0766H69.1368V46.2887L70.7662 46.0142C72.8078 45.8074 73.5199 44.6415 73.6573 41.8892C74.1623 37.4202 74.2997 28.0473 73.6573 22.8903C73.5199 19.9347 72.8078 18.8331 70.7662 18.5586L69.1368 18.3518V17.1147L84.2098 14.2269L84.0028 21.9277C87.5364 13.9524 94.5571 12.9897 98.3655 15.1217L94.7802 24.2665ZM45.3155 31.6464C45.3155 40.0567 47.5873 46.9322 52.1756 46.9322C57.1315 46.9322 58.5539 40.194 58.5539 31.6464C58.5539 23.0989 56.3517 16.4302 51.6938 16.4302C46.6968 16.4302 45.3155 22.9616 45.3155 31.6464ZM69.2225 31.5092C69.2225 41.1566 62.8442 48.9786 51.4653 48.9786C40.2685 48.9786 34.6255 41.5309 34.6255 31.7676C34.6255 22.188 41.0038 14.2126 52.3826 14.2126C63.5794 14.2126 69.2225 21.7066 69.2225 31.4913V31.5092ZM39.9187 14.8989L37.5987 15.587C35.6249 8.8256 32.1377 4.97697 26.1271 4.97697H18.28C17.8446 9.46912 17.6376 16.4123 17.8446 23.9082L23.0736 23.6336C26.6071 23.6336 28.0973 21.0899 28.9629 17.3945H30.9367V33.0244H28.9289C28.0795 29.2453 26.6089 26.6783 23.0396 26.4698L17.8107 26.3984C17.8107 31.9673 17.882 36.7339 18.2461 39.6218C18.5905 43.7467 19.7381 45.6255 22.7666 46.0159L25.6113 46.2905V48.0784H0V46.2905L2.13442 46.0159C5.09335 45.6059 6.31047 43.7467 6.65491 39.6218C7.22599 32.8835 7.36876 18.4926 6.65491 10.4941C6.31047 6.21588 5.09513 4.5135 2.13442 4.16946L0 3.82542V1.97152H39.8688L39.9187 14.8989Z" fill="#B3B4C0"/>
</svg>
