<svg width="195" height="50" viewBox="0 0 195 50" fill="none" xmlns="http://www.w3.org/2000/svg">
<g clip-path="url(#clip0_226:59)">
<path d="M25.9738 10.0657L16.8239 25.9261L7.67407 10.0657H7.64127H0V40.9674H7.64127V25.3691L14.0035 36.3796L15.1514 38.3458H18.4965L19.9395 35.7898L25.9738 25.3691V40.9674H33.615V10.0657H25.9738Z" fill="#B3B4C0"/>
<path d="M52.4393 29.76C52.4393 27.4333 50.9635 25.6966 48.8318 25.6966C46.6017 25.6966 45.0932 27.5972 45.0932 29.76C45.0932 32.0211 46.6017 33.8234 48.8318 33.8234C50.9635 33.8234 52.4393 32.0866 52.4393 29.76ZM36.96 29.8255C36.96 23.075 41.5841 18.52 46.2738 18.52C49.5205 18.52 51.5866 20.1913 52.8 21.8625L53.5543 19.1099H60.4085V40.3773H53.5543L52.8 37.6247C51.5866 39.3287 49.5205 40.9672 46.2738 40.9672C41.5841 40.9999 36.96 36.445 36.96 29.8255Z" fill="#B3B4C0"/>
<path d="M80.2824 20.0274V26.5158C78.7739 25.6638 76.0191 24.8773 73.6906 24.8773C72.346 24.8773 71.6245 25.1395 71.6245 25.6638C71.6245 26.1881 72.3788 26.5158 74.4449 26.9746C78.118 27.761 81.791 29.0718 81.791 33.6923C81.791 38.149 78.2819 40.9672 71.8869 40.9672C68.6074 40.9672 65.9181 40.2135 64.1144 39.2304V32.2832C66.0493 33.5612 68.3778 34.6099 71.5261 34.6099C73.1003 34.6099 74.0186 34.3477 74.0186 33.7579C74.0186 33.0697 72.8707 32.8403 70.3127 32.1849C67.0332 31.3329 63.8521 29.7272 63.8521 25.7293C63.8521 21.5676 67.2628 18.52 73.2971 18.52C75.8223 18.52 78.5115 19.0771 80.2824 20.0274Z" fill="#B3B4C0"/>
<path d="M92.9744 20.7484H93.0071C94.1878 19.5032 96.1555 18.4873 98.4839 18.4873C103.01 18.4873 105.83 21.24 105.83 26.0243V40.3118H97.7297V28.1216C97.7297 26.3848 96.9754 25.6311 95.4996 25.6311C93.9582 25.6311 93.0071 26.6469 93.0071 27.9905V40.2791H84.9067V10H93.0071V20.7484H92.9744Z" fill="#B3B4C0"/>
<path d="M124.064 29.76C124.064 27.4333 122.588 25.6966 120.457 25.6966C118.227 25.6966 116.718 27.5972 116.718 29.76C116.718 32.0211 118.227 33.8234 120.457 33.8234C122.588 33.8234 124.064 32.0866 124.064 29.76ZM108.585 29.8255C108.585 23.075 113.209 18.52 117.899 18.52C121.146 18.52 123.212 20.1913 124.425 21.8625L125.179 19.1099H132.034V40.3773H125.179L124.425 37.6247C123.212 39.3287 121.146 40.9672 117.899 40.9672C113.209 40.9999 108.585 36.445 108.585 29.8255Z" fill="#B3B4C0"/>
<path d="M144.069 29.6945C144.069 32.0539 145.545 33.7579 147.677 33.7579C149.874 33.7579 151.383 31.9884 151.383 29.7273C151.383 27.4989 149.874 25.6311 147.644 25.6311C145.512 25.6311 144.069 27.3679 144.069 29.6945ZM144.135 21.7315C145.348 19.9292 147.841 18.4873 150.464 18.4873C155.351 18.4873 159.516 22.8784 159.516 29.6945C159.516 36.5106 154.99 40.9017 150.104 40.9017C147.021 40.9017 144.889 39.2304 143.709 37.5592L142.954 40.3118H136.1V10H144.168L144.135 21.7315Z" fill="#B3B4C0"/>
<path d="M170.666 10H162.599V40.3118H170.666V10Z" fill="#B3B4C0"/>
<path d="M187.392 27.4333C187.359 25.9587 186.375 24.6806 184.637 24.6806C183.063 24.6806 181.751 25.7293 181.193 27.4333H187.392ZM194.803 31.8899H181.488C182.505 33.9217 184.834 34.872 187.359 34.872C189.654 34.872 191.688 34.1183 193.557 33.299V39.4597C191.36 40.5083 188.9 41.0327 186.211 41.0327C178.078 41.0327 173.65 36.2483 173.65 29.8255C173.65 23.1732 178.406 18.5527 184.67 18.5527C190.343 18.5527 194.967 22.3212 194.967 29.465C195 30.2515 194.934 31.0707 194.803 31.8899Z" fill="#B3B4C0"/>
</g>
<defs>
<clipPath id="clip0_226:59">
<rect width="195" height="31" fill="white" transform="translate(0 10)"/>
</clipPath>
</defs>
</svg>
