<svg width="195" height="50" viewBox="0 0 195 50" fill="none" xmlns="http://www.w3.org/2000/svg">
<g clip-path="url(#clip0_226:49)">
<path d="M32.7505 46.7771C30.0428 47.2659 27.2874 47.4124 24.4371 47.8026L15.7433 21.631V48.9259C13.0356 49.2188 10.5654 49.6094 8 50V0H15.2211L25.1021 28.3696V0H32.7505V46.7771ZM47.715 18.3106C50.6605 18.3106 55.1735 18.164 57.8813 18.164V25.9764C54.5082 25.9764 50.5654 25.9764 47.715 26.1229V37.7442C52.1807 37.4513 56.6462 37.0603 61.1591 36.9138V44.4329L40.1138 46.1423V0H61.1591V7.81251H47.715V18.3106ZM89.425 7.81269H81.5391V43.7501C78.9738 43.7501 76.4084 43.7501 73.9385 43.8475V7.81269H66.0526V0H89.4254L89.425 7.81269ZM101.776 17.7736H112.18V25.5859H101.776V43.3107H94.3176V0H115.553V7.81251H101.776V17.7736ZM127.905 36.4746C132.228 36.572 136.598 36.9143 140.826 37.1581V44.873C134.033 44.4333 127.24 43.9944 120.304 43.8475V0H127.905V36.4746ZM147.24 45.4102C149.662 45.5569 152.228 45.7034 154.698 45.9959V0H147.24V45.4102ZM188 0L178.356 23.7794L188 50C185.149 49.6094 182.299 49.0722 179.449 48.5839L173.986 34.1311L168.428 47.4124C165.672 46.9237 163.012 46.7771 160.257 46.3865L170.043 23.4861L161.207 0H169.377L174.366 13.1348L179.686 0L188 0Z" fill="#B3B4C0"/>
</g>
<defs>
<clipPath id="clip0_226:49">
<rect width="180" height="50" fill="white" transform="translate(8)"/>
</clipPath>
</defs>
</svg>
