<svg width="195" height="45" viewBox="0 0 195 45" fill="none" xmlns="http://www.w3.org/2000/svg">
<path d="M55.5703 15.071H57.0856V21.0358H64.18V15.071H65.6769V30.169H64.18V22.7761H57.0856V30.169H55.5703V15.071Z" fill="#EB2227"/>
<path d="M75.8512 21.7935H71.1445V23.4741H75.8512V21.7935Z" fill="#474CDE"/>
<path d="M81.0133 26.2751C81.7895 27.0533 82.6895 27.6973 83.6765 28.1808C84.5232 28.591 85.4496 28.8105 86.3903 28.8236C86.9204 28.8322 87.4482 28.7515 87.9515 28.5848C88.3831 28.4428 88.7815 28.2147 89.1225 27.9144C89.4383 27.6324 89.6931 27.2886 89.8709 26.9042C90.0513 26.5144 90.1423 26.0893 90.1373 25.6598C90.148 24.9937 89.8955 24.3502 89.4347 23.869C88.8709 23.3113 88.1194 22.9839 87.3271 22.9506C86.8082 22.8955 86.3168 22.8496 85.8623 22.8129C85.4077 22.7762 84.976 22.7257 84.5582 22.6706C84.1629 22.6176 83.7717 22.5378 83.3873 22.4318C83.0308 22.333 82.6894 22.1863 82.3725 21.9956C81.8263 21.6885 81.3764 21.2356 81.0731 20.6873C80.7697 20.1391 80.625 19.5173 80.6551 18.8915C80.6491 18.3328 80.7601 17.7791 80.9811 17.2659C81.1888 16.7617 81.5019 16.3077 81.8995 15.9343C82.3238 15.5319 82.8252 15.2195 83.3735 15.016C83.9932 14.793 84.6481 14.6841 85.3066 14.6945C86.336 14.6941 87.3541 14.9084 88.2959 15.3236C89.3091 15.7802 90.2399 16.4007 91.051 17.1603L90.1786 18.7262C88.6786 17.2139 87.0577 16.4578 85.3158 16.4578C84.4933 16.4099 83.6802 16.6538 83.0199 17.1466C82.7599 17.3332 82.5476 17.5785 82.4 17.8625C82.2524 18.1465 82.1738 18.4612 82.1704 18.7813C82.1672 19.034 82.2175 19.2845 82.318 19.5164C82.4185 19.7483 82.567 19.9563 82.7536 20.1267C83.0051 20.3711 83.3101 20.5535 83.6444 20.6593C84.015 20.7801 84.3963 20.8646 84.7832 20.9119C85.1964 20.967 85.651 21.0083 86.1607 21.0359C86.6704 21.0634 87.1709 21.1185 87.7265 21.192C88.8575 21.3118 89.9027 21.8507 90.6561 22.7027C91.3513 23.5341 91.7201 24.5901 91.6939 25.6736C91.6967 26.3124 91.5751 26.9456 91.3357 27.5379C91.1036 28.1155 90.755 28.6391 90.3117 29.0762C89.8348 29.5358 89.2692 29.8936 88.6495 30.1277C87.9263 30.3994 87.1582 30.5318 86.3857 30.518C85.2441 30.5293 84.1119 30.3107 83.0567 29.8751C81.9583 29.3928 80.96 28.7091 80.1133 27.8593L81.0133 26.2751Z" fill="#474CDE"/>
<path d="M99.8343 16.8112H94.7695V15.0754H106.396V16.8112H101.331V30.1688H99.8343V16.8112Z" fill="#474CDE"/>
<path d="M110.102 15.071H116.989C117.505 15.0413 118.021 15.125 118.501 15.3162C118.981 15.5074 119.413 15.8014 119.767 16.1777C120.474 17.0489 120.827 18.1532 120.759 19.2726C120.763 19.7831 120.695 20.2916 120.557 20.7833C120.433 21.231 120.241 21.6569 119.988 22.046C119.754 22.4081 119.462 22.7292 119.125 22.9966C118.769 23.2566 118.362 23.4367 117.931 23.5246L120.943 30.1644H119.294L116.282 23.5522H111.598V30.1644H110.102V15.071ZM116.907 21.7935C118.437 21.7935 119.203 20.9716 119.203 19.3277C119.237 18.6672 119.035 18.0161 118.633 17.4909C118.425 17.2602 118.167 17.0796 117.88 16.9627C117.592 16.8458 117.281 16.7956 116.971 16.8159H111.598V21.8027L116.907 21.7935Z" fill="#474CDE"/>
<path d="M129.871 15.0708H131.12L137.089 30.1688H135.464L133.82 26.1096H127.171L125.587 30.1688H123.984L129.871 15.0708ZM133.154 24.3417L130.496 17.6468L127.851 24.3417H133.154Z" fill="#474CDE"/>
<path d="M142.881 16.8112H137.816V15.0754H149.438V16.8112H144.378V30.1688H142.881V16.8112Z" fill="#474CDE"/>
<path d="M153.207 15.071H162.671V16.8068H154.704V21.2333H159.525V22.969H154.704V28.4333H163.162V30.169H153.207V15.071Z" fill="#474CDE"/>
<path d="M177.733 23.8643H174.455V22.1285H179.23V26.6699C178.747 27.8209 177.965 28.8225 176.967 29.5719C176.038 30.2327 174.924 30.5801 173.784 30.5638C172.92 30.5694 172.066 30.3679 171.296 29.976C170.526 29.5816 169.853 29.0218 169.326 28.3367C168.75 27.5889 168.311 26.7446 168.031 25.8434C167.406 23.7757 167.406 21.5697 168.031 19.502C168.311 18.5923 168.75 17.739 169.326 16.9811C169.85 16.2896 170.524 15.7247 171.296 15.328C172.166 14.8892 173.137 14.689 174.11 14.7479C175.083 14.8067 176.023 15.1226 176.833 15.6632C177.786 16.3238 178.551 17.2211 179.051 18.2668L177.802 19.3918C177.468 18.5399 176.9 17.7997 176.163 17.2566C175.47 16.7601 174.637 16.4964 173.784 16.5035C173.143 16.4999 172.512 16.6578 171.948 16.9627C171.366 17.2762 170.858 17.7116 170.46 18.2393C170.022 18.8237 169.69 19.4814 169.482 20.1816C169.236 20.985 169.116 21.8212 169.124 22.6612C169.115 23.4967 169.236 24.3286 169.482 25.127C169.695 25.8269 170.026 26.4854 170.46 27.074C170.855 27.6031 171.364 28.0376 171.948 28.3459C172.514 28.6453 173.144 28.8029 173.784 28.8051C175.465 28.8051 176.781 27.899 177.733 26.0867V23.8643Z" fill="#474CDE"/>
<path d="M187.926 22.6063L182.508 15.071H184.381L188.688 21.0404L192.968 15.071H194.869L189.423 22.6338V30.169H187.926V22.6063Z" fill="#474CDE"/>
<path d="M39.7639 39.737H5.22777V5.26584H39.7639V39.737ZM45 0H0V45H45V0Z" fill="#474CDE"/>
<path d="M15 10H10V35H15V10Z" fill="#EB2227"/>
<path d="M25 25H20V35H25V25Z" fill="#EB2227"/>
<path d="M25 10H20V20H25V10Z" fill="#EB2227"/>
<path d="M35 10H30V35H35V10Z" fill="#EB2227"/>
</svg>
